<?xml version="1.0" encoding="utf-8"?>
<!DOCTYPE svg PUBLIC "-//W3C//DTD SVG 1.1//EN" "http://www.w3.org/Graphics/SVG/1.1/DTD/svg11.dtd">
<!--License: PD. Made by Icooon Mono: https://icooon-mono.com/-->
<svg  version="1.1" id="_x32_" xmlns="http://www.w3.org/2000/svg" xmlns:xlink="http://www.w3.org/1999/xlink" viewBox="0 0 512 512" xml:space="preserve">
  <style type="text/css">
    .st0{fill:#000000;}
  </style>
  <g>
    <path class="st0" d="M157.77,102.658c13.807,0,25.171,10.32,26.835,23.642c0.159-1.346,0.263-2.692,0.263-4.077
		c0-19.032-15.448-34.448-34.528-34.448c-19.063,0-34.511,15.416-34.511,34.448s15.448,34.456,34.511,34.456
		c1.354,0,2.675-0.104,3.974-0.247c-13.306-1.704-23.61-13.019-23.61-26.772C130.704,114.753,142.823,102.658,157.77,102.658z"/>
    <path class="st0" d="M255.993,1.656C114.611,1.656,0,115.526,0,256c0,140.466,114.611,254.344,255.993,254.344
		C397.382,510.344,512,396.466,512,256C512,115.526,397.382,1.656,255.993,1.656z M90.698,230.272
		c-19.072,0-34.528,15.424-34.528,34.439c0,19.032,15.456,34.456,34.528,34.456c1.083,0,2.134-0.096,3.185-0.191
		c-2.851,14.882-4.412,30.219-4.412,45.914c0,32.744,6.386,64.333,19.024,94.146c-55.82-44.433-88.62-111.52-88.62-183.035
		c0-129.342,105.923-234.556,236.117-234.556c82.082,0,157.14,41.854,200.219,110.422c-32.441-18.227-68.464-28.77-105.764-30.999
		c0.032-0.622,0.112-1.235,0.112-1.863c0-22.671-18.426-41.057-41.153-41.057c-22.726,0-41.144,18.386-41.144,41.057
		c0,3.591,0.51,7.055,1.378,10.367c-68.72,19.016-125.456,66.929-155.914,129.732C107.611,233.624,99.553,230.272,90.698,230.272z
		 M109.73,247.878c-7.056,16.141-12.391,33.173-15.798,50.883c-12.948-2.022-22.87-13.115-22.87-26.604
		c0-14.914,12.103-27.002,27.058-27.002C102.292,245.154,106.194,246.189,109.73,247.878z M349.724,100.85
		c-4.714-0.271-9.444-0.454-14.19-0.454c-16.921,0-33.436,1.712-49.394,4.961c1.29-16.595,15.162-29.67,32.123-29.67
		C333.662,75.687,346.515,86.453,349.724,100.85z M197.321,416.086c-22.726,0-41.152-18.378-41.152-41.057
		c0-1.64,0.127-3.256,0.318-4.857c1.975,15.878,15.528,28.181,31.98,28.181c17.821,0,32.265-14.421,32.265-32.195
		c0-16.387-12.278-29.876-28.14-31.899c1.544-0.191,3.122-0.294,4.73-0.294c22.727,0,41.144,18.386,41.144,41.064
		C238.466,397.708,220.048,416.086,197.321,416.086z M276.855,280.223c-22.726,0-41.152-18.386-41.152-41.065
		c0-1.648,0.127-3.257,0.318-4.858c1.975,15.878,15.528,28.181,31.98,28.181c17.821,0,32.266-14.413,32.266-32.194
		c0-16.387-12.278-29.868-28.14-31.907c1.552-0.175,3.121-0.287,4.729-0.287c22.727,0,41.144,18.387,41.144,41.065
		C317.999,261.837,299.582,280.223,276.855,280.223z M372.952,435.978c-22.726,0-41.152-18.386-41.152-41.065
		c0-1.648,0.128-3.256,0.319-4.857c1.983,15.878,15.528,28.181,31.979,28.181c17.821,0,32.266-14.413,32.266-32.195
		c0-16.388-12.279-29.877-28.141-31.907c1.561-0.176,3.138-0.286,4.73-0.286c22.726,0,41.153,18.386,41.153,41.064
		C414.104,417.592,395.678,435.978,372.952,435.978z M421.78,261.279c-22.726,0-41.152-18.386-41.152-41.056
		c0-1.649,0.127-3.265,0.319-4.865c1.975,15.878,15.528,28.18,31.978,28.18c17.822,0,32.266-14.42,32.266-32.194
		c0-16.388-12.279-29.869-28.141-31.9c1.561-0.183,3.138-0.294,4.73-0.294c22.726,0,41.153,18.386,41.153,41.072
		C462.933,242.892,444.507,261.279,421.78,261.279z"/>
  </g>
</svg>
